<svg width="20" height="20" viewBox="0 0 20 20" fill="none" xmlns="http://www.w3.org/2000/svg">
<path d="M12.4998 18.9583C12.2748 18.9583 12.0665 18.8333 11.9582 18.6417C11.8498 18.45 11.8498 18.2083 11.9665 18.0167L12.8415 16.5583C13.0165 16.2583 13.3998 16.1667 13.6998 16.3417C13.9998 16.5167 14.0915 16.9 13.9165 17.2L13.6915 17.575C15.9915 17.0333 17.7165 14.9667 17.7165 12.5C17.7165 12.1583 17.9998 11.875 18.3415 11.875C18.6832 11.875 18.9665 12.1583 18.9665 12.5C18.9582 16.0583 16.0582 18.9583 12.4998 18.9583Z" fill="#C4C4C4"/>
<path d="M1.6665 8.12484C1.32484 8.12484 1.0415 7.8415 1.0415 7.49984C1.0415 3.9415 3.9415 1.0415 7.49984 1.0415C7.72484 1.0415 7.93317 1.1665 8.0415 1.35817C8.14984 1.54984 8.14984 1.7915 8.03317 1.98317L7.15817 3.44984C6.98317 3.7415 6.59984 3.8415 6.29984 3.65817C6.00817 3.48317 5.90817 3.09984 6.0915 2.79984L6.3165 2.42484C4.00817 2.9665 2.2915 5.03317 2.2915 7.49984C2.2915 7.8415 2.00817 8.12484 1.6665 8.12484Z" fill="#C4C4C4"/>
<path d="M8.8918 11.5418L6.27513 10.1335C6.00013 9.9835 5.6668 9.9835 5.3918 10.1335L2.77513 11.5418C2.58346 11.6418 2.4668 11.8502 2.4668 12.0752C2.4668 12.3002 2.58346 12.5085 2.77513 12.6085L5.3918 14.0168C5.53346 14.0918 5.68346 14.1252 5.83346 14.1252C5.98346 14.1252 6.13346 14.0918 6.27513 14.0168L8.8918 12.6085C9.08346 12.5085 9.20013 12.3002 9.20013 12.0752C9.20013 11.8502 9.07513 11.6502 8.8918 11.5418Z" fill="#C4C4C4"/>
<path d="M4.95817 14.5082L2.52484 13.2915C2.3415 13.1999 2.12484 13.2082 1.9415 13.3165C1.77484 13.4249 1.6665 13.6165 1.6665 13.8249V16.1249C1.6665 16.5249 1.88317 16.8832 2.2415 17.0582L4.67484 18.2749C4.75817 18.3082 4.84984 18.3332 4.9415 18.3332C5.04984 18.3332 5.15817 18.2999 5.25817 18.2415C5.43317 18.1332 5.5415 17.9415 5.5415 17.7332V15.4332C5.5415 15.0415 5.3165 14.6832 4.95817 14.5082Z" fill="#C4C4C4"/>
<path d="M9.71667 13.3165C9.54167 13.2082 9.325 13.1999 9.13333 13.2915L6.7 14.5082C6.34167 14.6832 6.125 15.0415 6.125 15.4415V17.7415C6.125 17.9499 6.23333 18.1415 6.40833 18.2499C6.50833 18.2999 6.61667 18.3332 6.725 18.3332C6.81667 18.3332 6.90833 18.3082 6.99167 18.2665L9.425 17.0499C9.78333 16.8749 10 16.5165 10 16.1165V13.8165C10 13.6165 9.89167 13.4249 9.71667 13.3165Z" fill="#C4C4C4"/>
<path d="M17.2248 3.19173L14.6081 1.7834C14.3331 1.6334 13.9998 1.6334 13.7248 1.7834L11.1081 3.19173C10.9165 3.29173 10.7998 3.50006 10.7998 3.72506C10.7998 3.95006 10.9165 4.1584 11.1081 4.2584L13.7248 5.66673C13.8665 5.74173 14.0165 5.77506 14.1665 5.77506C14.3165 5.77506 14.4665 5.74173 14.6081 5.66673L17.2248 4.2584C17.4165 4.1584 17.5331 3.95006 17.5331 3.72506C17.5331 3.49173 17.4081 3.29173 17.2248 3.19173Z" fill="#C4C4C4"/>
<path d="M13.2917 6.1498L10.8583 4.93314C10.675 4.84147 10.4583 4.8498 10.275 4.95814C10.1083 5.06647 10 5.25814 10 5.46647V7.76647C10 8.16647 10.2167 8.5248 10.575 8.6998L13.0083 9.91647C13.0917 9.95814 13.1833 9.98314 13.275 9.98314C13.3833 9.98314 13.4917 9.9498 13.5917 9.89147C13.7667 9.78314 13.875 9.59147 13.875 9.38314V7.08314C13.875 6.68314 13.65 6.3248 13.2917 6.1498Z" fill="#C4C4C4"/>
<path d="M18.0502 4.95814C17.8752 4.8498 17.6585 4.84147 17.4668 4.93314L15.0335 6.1498C14.6752 6.3248 14.4585 6.68314 14.4585 7.08314V9.38314C14.4585 9.59147 14.5668 9.78314 14.7418 9.89147C14.8418 9.9498 14.9502 9.98314 15.0585 9.98314C15.1502 9.98314 15.2418 9.95814 15.3252 9.91647L17.7585 8.6998C18.1168 8.51647 18.3335 8.15814 18.3335 7.76647V5.46647C18.3335 5.25814 18.2252 5.06647 18.0502 4.95814Z" fill="#C4C4C4"/>
</svg>
