<svg width="16" height="16" viewBox="0 0 16 16" fill="none" xmlns="http://www.w3.org/2000/svg">
<path d="M13.7331 2.73324V4.1999C13.7331 4.73324 13.3998 5.3999 13.0664 5.73324L10.1998 8.26657C9.79976 8.5999 9.53309 9.26657 9.53309 9.7999V12.6666C9.53309 13.0666 9.26643 13.5999 8.93309 13.7999L7.99976 14.3999C7.13309 14.9332 5.93309 14.3332 5.93309 13.2666V9.73324C5.93309 9.26657 5.66643 8.66657 5.39976 8.33324L5.08643 8.00657C4.87976 7.78657 4.83976 7.45324 5.00643 7.19324L8.41976 1.71324C8.53976 1.5199 8.75309 1.3999 8.98643 1.3999H12.3998C13.1331 1.3999 13.7331 1.9999 13.7331 2.73324Z" fill="#B2B2B2"/>
<path d="M6.89994 2.4199L4.53327 6.21324C4.3066 6.5799 3.7866 6.63323 3.4866 6.3199L2.8666 5.66657C2.53327 5.33324 2.2666 4.73324 2.2666 4.33324V2.7999C2.2666 1.9999 2.8666 1.3999 3.59993 1.3999H6.33327C6.85327 1.3999 7.17327 1.97324 6.89994 2.4199Z" fill="#B2B2B2"/>
</svg>
