<svg width="26" height="26" viewBox="0 0 26 26" fill="none" xmlns="http://www.w3.org/2000/svg">
<rect width="26" height="26" rx="5" fill="#F5F6FA"/>
<path d="M13 11C11.9008 11 11 11.9008 11 13C11 14.0992 11.9008 15 13 15C14.0992 15 15 14.0992 15 13C15 11.9008 14.0992 11 13 11Z" fill="#8F8F8F"/>
<path d="M13 5C11.9008 5 11 5.90076 11 7C11 8.09924 11.9008 9 13 9C14.0992 9 15 8.09924 15 7C15 5.90076 14.0992 5 13 5Z" fill="#8F8F8F"/>
<path d="M13 17C11.9008 17 11 17.9008 11 19C11 20.0992 11.9008 21 13 21C14.0992 21 15 20.0992 15 19C15 17.9008 14.0992 17 13 17Z" fill="#8F8F8F"/>
</svg>
