<svg width="20" height="20" viewBox="0 0 20 20" fill="none" xmlns="http://www.w3.org/2000/svg">
<path fill-rule="evenodd" clip-rule="evenodd" d="M15.556 5.71614H13.3V4.94817C13.3 3.58811 12.196 2.50017 10.852 2.50017H9.36405C8.00399 2.48421 6.89999 3.58811 6.89999 4.9322V5.70017H4.64397C3.45994 5.70017 2.5 6.66023 2.5 7.84414V9.71614C3.20403 9.92417 4.16394 10.1482 5.444 10.3242V10.2762C5.444 9.54012 6.03597 8.94818 6.77199 8.94818H7.52399C8.26005 8.94818 8.85199 9.54015 8.85199 10.2762V10.5641C9.25199 10.5801 9.66796 10.5801 10.1 10.5801C10.532 10.5801 10.948 10.5801 11.332 10.5641V10.2762C11.332 9.54012 11.924 8.94818 12.66 8.94818H13.412C14.1481 8.94818 14.74 9.54015 14.74 10.2762L14.7399 10.3401C16.0199 10.1801 16.9798 9.9561 17.6839 9.7321L17.684 7.86021C17.7 6.66021 16.7399 5.71613 15.556 5.71613V5.71614ZM8.74002 5.71614V4.94817C8.74002 4.61211 9.01201 4.34014 9.34805 4.34014H10.836C11.172 4.34014 11.444 4.61213 11.444 4.94817V5.71614H8.74002Z" fill="#C4C4C4"/>
<path fill-rule="evenodd" clip-rule="evenodd" d="M14.7561 11.8922C14.7561 12.6282 14.1642 13.2202 13.4281 13.2202H12.6761C11.9401 13.2202 11.3481 12.6282 11.3481 11.8922V11.5722C10.9481 11.5882 10.5322 11.5882 10.1161 11.5882C9.68407 11.5882 9.2681 11.5882 8.8681 11.5722V11.8922C8.8681 12.6282 8.27613 13.2202 7.54011 13.2202H6.78811C6.05205 13.2202 5.46011 12.6282 5.46011 11.8922V11.3321C4.22808 11.1721 3.26814 10.9801 2.51611 10.7721V14.7881C2.51611 15.9721 3.47617 16.932 4.66008 16.932H15.5721C16.7561 16.932 17.716 15.972 17.716 14.7881V10.7563C16.964 10.9644 16.004 11.1723 14.772 11.3164V11.8923L14.7561 11.8922Z" fill="#C4C4C4"/>
<path fill-rule="evenodd" clip-rule="evenodd" d="M7.52391 12.244C7.71588 12.244 7.87591 12.0839 7.87591 11.892V10.2919C7.87591 10.1 7.71586 9.93994 7.52391 9.93994H6.77192C6.57995 9.93994 6.41992 10.1 6.41992 10.2919V11.892C6.41992 12.0839 6.57997 12.244 6.77192 12.244H7.52391Z" fill="#C4C4C4"/>
<path fill-rule="evenodd" clip-rule="evenodd" d="M13.4282 12.244C13.6202 12.244 13.7802 12.0839 13.7802 11.892V10.2919C13.7802 10.1 13.6202 9.93994 13.4282 9.93994H12.6762C12.4843 9.93994 12.3242 10.1 12.3242 10.2919V11.892C12.3242 12.0839 12.4843 12.244 12.6762 12.244H13.4282Z" fill="#C4C4C4"/>
</svg>
