<svg width="20" height="20" viewBox="0 0 20 20" fill="none" xmlns="http://www.w3.org/2000/svg">
<path d="M14.1665 1.6665H5.83317C3.53317 1.6665 1.6665 3.52484 1.6665 5.8165V10.7998V11.6332C1.6665 13.9248 3.53317 15.7832 5.83317 15.7832H7.08317C7.30817 15.7832 7.60817 15.9332 7.74984 16.1165L8.99984 17.7748C9.54984 18.5082 10.4498 18.5082 10.9998 17.7748L12.2498 16.1165C12.4082 15.9082 12.6582 15.7832 12.9165 15.7832H14.1665C16.4665 15.7832 18.3332 13.9248 18.3332 11.6332V5.8165C18.3332 3.52484 16.4665 1.6665 14.1665 1.6665ZM10.8332 11.4582H5.83317C5.4915 11.4582 5.20817 11.1748 5.20817 10.8332C5.20817 10.4915 5.4915 10.2082 5.83317 10.2082H10.8332C11.1748 10.2082 11.4582 10.4915 11.4582 10.8332C11.4582 11.1748 11.1748 11.4582 10.8332 11.4582ZM14.1665 7.2915H5.83317C5.4915 7.2915 5.20817 7.00817 5.20817 6.6665C5.20817 6.32484 5.4915 6.0415 5.83317 6.0415H14.1665C14.5082 6.0415 14.7915 6.32484 14.7915 6.6665C14.7915 7.00817 14.5082 7.2915 14.1665 7.2915Z" fill="white"/>
</svg>
