<svg width="20" height="20" viewBox="0 0 20 20" fill="none" xmlns="http://www.w3.org/2000/svg">
<path d="M17.4917 8.0915C17.2083 7.97484 16.8333 7.9165 16.3667 7.9165H11.9667C10.5167 7.9165 10 8.43317 10 9.89984V16.3498C10 16.8332 10.0583 17.2082 10.1833 17.4998C10.4417 18.0998 10.9917 18.3332 11.9667 18.3332H16.3667C17.8167 18.3332 18.3333 17.8082 18.3333 16.3498V9.89984C18.3333 8.90817 18.1 8.34984 17.4917 8.0915ZM15 16.4582H13.3333C13.3167 16.4582 13.2917 16.4582 13.275 16.4498C13.15 16.4415 13.0417 16.3998 12.95 16.3165C12.8 16.2082 12.7083 16.0332 12.7083 15.8332C12.7083 15.4915 12.9917 15.2082 13.3333 15.2082H15C15.3417 15.2082 15.625 15.4915 15.625 15.8332C15.625 16.1748 15.3417 16.4582 15 16.4582Z" fill="#C4C4C4"/>
<path d="M17.4915 5.15817V5.83317C17.4915 6.2915 17.1165 6.6665 16.6581 6.6665H11.9665C9.83314 6.6665 8.7498 7.75817 8.7498 9.89984V17.4998C8.7498 17.9582 8.3748 18.3332 7.91647 18.3332H6.29147C5.95814 18.3332 5.69147 18.0665 5.69147 17.7415C5.69147 17.4082 5.95814 17.1498 6.29147 17.1498H7.91647V13.9582H4.9998C3.1498 13.8665 1.6748 12.3415 1.6748 10.4665V5.15817C1.6748 3.23317 3.24147 1.6665 5.1748 1.6665H13.9998C15.9248 1.6665 17.4915 3.23317 17.4915 5.15817Z" fill="#C4C4C4"/>
</svg>
