<svg width="20" height="20" viewBox="0 0 20 20" fill="none" xmlns="http://www.w3.org/2000/svg">
<path d="M13.3332 3.5415C13.3332 4.57484 12.4915 5.4165 11.4582 5.4165H8.5415C8.02484 5.4165 7.55817 5.20817 7.2165 4.8665C6.87484 4.52484 6.6665 4.05817 6.6665 3.5415C6.6665 2.50817 7.50817 1.6665 8.5415 1.6665H11.4582C11.9748 1.6665 12.4415 1.87484 12.7832 2.2165C13.1248 2.55817 13.3332 3.02484 13.3332 3.5415Z" fill="#C4C4C4"/>
<path d="M15.6918 4.19176C15.5002 4.03342 15.2835 3.90842 15.0502 3.81676C14.8085 3.72509 14.5668 3.91676 14.5168 4.16676C14.2335 5.59176 12.9752 6.66676 11.4585 6.66676H8.54183C7.7085 6.66676 6.92516 6.34176 6.3335 5.75009C5.90016 5.31676 5.60016 4.76676 5.4835 4.17509C5.4335 3.92509 5.1835 3.72509 4.94183 3.82509C3.97516 4.21676 3.3335 5.10009 3.3335 6.87509V15.0001C3.3335 17.5001 4.82516 18.3334 6.66683 18.3334H13.3335C15.1752 18.3334 16.6668 17.5001 16.6668 15.0001V6.87509C16.6668 5.51676 16.2918 4.68342 15.6918 4.19176ZM6.66683 10.2084H10.0002C10.3418 10.2084 10.6252 10.4918 10.6252 10.8334C10.6252 11.1751 10.3418 11.4584 10.0002 11.4584H6.66683C6.32516 11.4584 6.04183 11.1751 6.04183 10.8334C6.04183 10.4918 6.32516 10.2084 6.66683 10.2084ZM13.3335 14.7918H6.66683C6.32516 14.7918 6.04183 14.5084 6.04183 14.1668C6.04183 13.8251 6.32516 13.5418 6.66683 13.5418H13.3335C13.6752 13.5418 13.9585 13.8251 13.9585 14.1668C13.9585 14.5084 13.6752 14.7918 13.3335 14.7918Z" fill="#C4C4C4"/>
</svg>
