<svg width="20" height="20" viewBox="0 0 20 20" fill="none" xmlns="http://www.w3.org/2000/svg">
<path d="M13.4915 1.6665H6.50817C3.47484 1.6665 1.6665 3.47484 1.6665 6.50817V13.4832C1.6665 16.5248 3.47484 18.3332 6.50817 18.3332H13.4832C16.5165 18.3332 18.3248 16.5248 18.3248 13.4915V6.50817C18.3332 3.47484 16.5248 1.6665 13.4915 1.6665ZM6.3915 4.58317C6.3915 4.2415 6.67484 3.95817 7.0165 3.95817C7.35817 3.95817 7.6415 4.2415 7.6415 4.58317V7.83317C7.6415 8.17484 7.35817 8.45817 7.0165 8.45817C6.67484 8.45817 6.3915 8.17484 6.3915 7.83317V4.58317ZM7.99239 13.6664C7.79148 13.7622 7.6415 13.953 7.6415 14.1756V15.4165C7.6415 15.7582 7.35817 16.0415 7.0165 16.0415C6.67484 16.0415 6.3915 15.7582 6.3915 15.4165V14.1756C6.3915 13.953 6.24149 13.7623 6.04068 13.6662C5.27594 13.3005 4.74984 12.526 4.74984 11.6248C4.74984 10.3748 5.7665 9.34984 7.0165 9.34984C8.2665 9.34984 9.2915 10.3665 9.2915 11.6248C9.2915 12.5262 8.75892 13.3007 7.99239 13.6664ZM13.6082 15.4165C13.6082 15.7582 13.3248 16.0415 12.9832 16.0415C12.6415 16.0415 12.3582 15.7582 12.3582 15.4165V12.1665C12.3582 11.8248 12.6415 11.5415 12.9832 11.5415C13.3248 11.5415 13.6082 11.8248 13.6082 12.1665V15.4165ZM12.9832 10.6415C11.7332 10.6415 10.7082 9.62484 10.7082 8.3665C10.7082 7.46517 11.2408 6.69064 12.0073 6.32497C12.2082 6.22913 12.3582 6.03831 12.3582 5.81571V4.58317C12.3582 4.2415 12.6415 3.95817 12.9832 3.95817C13.3248 3.95817 13.6082 4.2415 13.6082 4.58317V5.82405C13.6082 6.04664 13.7582 6.23741 13.959 6.33345C14.7237 6.69918 15.2498 7.47363 15.2498 8.37484C15.2498 9.62484 14.2332 10.6415 12.9832 10.6415Z" fill="#C4C4C4"/>
</svg>
