<svg width="18" height="18" viewBox="0 0 18 18" fill="none" xmlns="http://www.w3.org/2000/svg">
<circle cx="9" cy="9" r="9" fill="#FF8B61" fill-opacity="0.1"/>
<path d="M12.9427 6.85537C12.8854 6.71488 12.7708 6.59917 12.6316 6.54132C12.5661 6.51653 12.4925 6.5 12.4188 6.5H10.8961C10.5769 6.5 10.3231 6.7562 10.3231 7.07851C10.3231 7.40083 10.5769 7.65703 10.8961 7.65703H11.0435L9.31619 9.40083L8.4812 8.14463C8.38296 8.00413 8.23561 7.90496 8.0637 7.88843C7.8836 7.8719 7.72806 7.92975 7.60527 8.05372L5.16577 10.5165C4.94474 10.7397 4.94474 11.1033 5.16577 11.3347C5.28038 11.4504 5.41954 11.5 5.5669 11.5C5.71425 11.5 5.8616 11.4421 5.96802 11.3347L7.91635 9.36777L8.75134 10.624C8.84958 10.7645 8.99693 10.8636 9.16884 10.8802C9.34894 10.8967 9.50448 10.8388 9.62727 10.7149L11.8539 8.46694V8.6157C11.8539 8.93802 12.1077 9.19421 12.427 9.19421C12.7462 9.19421 13 8.93802 13 8.6157V7.07025C12.9836 6.99587 12.9754 6.92149 12.9427 6.85537Z" fill="#FF8B61"/>
</svg>
